<svg width="520" height="225" viewBox="0 0 520 225" fill="none" xmlns="http://www.w3.org/2000/svg">
<path d="M50.3224 174.453V160.786H53.5593V174.453H50.3224ZM50.1625 153.713V150.476H61.5519C67.6263 150.476 71.103 154.032 71.103 160.267V174.453H67.866V160.267C67.866 155.951 65.5082 153.713 61.5519 153.713H50.1625ZM81.2505 174.453L89.1631 153.713H75.256V145.041H78.493V150.476H93.8787L84.7672 174.453H81.2505ZM96.6904 150.476H100.207L102.605 156.59C104.403 152.274 108.16 150.036 111.876 150.036C118.35 150.036 122.706 155.311 122.706 162.425C122.706 169.538 117.791 174.853 111.037 174.853C109.798 174.853 107.96 174.693 106.481 174.333V171.096C107.96 171.456 109.798 171.616 111.037 171.616C115.953 171.616 119.309 167.66 119.309 162.425C119.309 157.229 116.712 153.273 111.876 153.273C108.719 153.273 105.123 155.071 104.004 160.267L100.567 174.453H97.21L100.647 160.466L96.6904 150.476ZM127.226 174.453V150.476H138.455C144.53 150.476 148.006 154.032 148.006 160.267V174.453H144.769V160.267C144.769 155.951 142.412 153.713 138.455 153.713H130.463V174.453H127.226ZM162.039 174.453V150.476H174.387C180.462 150.476 183.938 154.032 183.938 160.267V174.453H162.039ZM165.276 171.216H180.701V160.267C180.701 155.951 178.344 153.713 174.387 153.713H165.276V171.216ZM189.026 150.476H192.263V164.463H189.026V150.476ZM196.465 150.476H199.981L202.379 156.59C204.178 152.274 207.934 150.036 211.651 150.036C218.125 150.036 222.481 155.311 222.481 162.425C222.481 169.538 217.565 174.853 210.811 174.853C209.573 174.853 207.734 174.693 206.256 174.333V171.096C207.734 171.456 209.573 171.616 210.811 171.616C215.727 171.616 219.084 167.66 219.084 162.425C219.084 157.229 216.486 153.273 211.651 153.273C208.494 153.273 204.897 155.071 203.778 160.267L200.341 174.453H196.984L200.421 160.466L196.465 150.476ZM237.147 174.453V153.713H224.239V150.476H244.78V153.713H240.384V174.453H237.147ZM249.864 180.448V161.346H253.101V180.448H249.864ZM249.304 153.713V150.476H272.443L264.051 174.453H260.494L267.847 153.713H249.304ZM275.241 150.476H278.758L281.156 156.59C282.954 152.274 286.711 150.036 290.427 150.036C296.901 150.036 301.257 155.311 301.257 162.425C301.257 169.538 296.342 174.853 289.588 174.853C288.349 174.853 286.511 174.693 285.032 174.333V171.096C286.511 171.456 288.349 171.616 289.588 171.616C294.503 171.616 297.86 167.66 297.86 162.425C297.86 157.229 295.263 153.273 290.427 153.273C287.27 153.273 283.674 155.071 282.555 160.267L279.118 174.453H275.761L279.198 160.466L275.241 150.476ZM168.024 221.453V218.216H172.619V197.476H183.449C189.524 197.476 193 201.032 193 207.267V221.453H189.763V207.267C189.763 202.951 187.406 200.713 183.449 200.713H175.856V221.453H168.024ZM198.742 197.476H201.979V221.453H198.742V197.476ZM207.699 197.476H210.936V211.463H207.699V197.476ZM229.405 221.853C221.932 221.853 216.337 216.698 216.337 208.825V197.476H219.574V206.467C220.773 207.307 222.052 207.746 223.45 207.746C225.648 207.746 227.966 206.787 227.966 203.11V197.476H231.203V202.991C231.203 208.266 227.526 210.623 223.93 210.623C221.972 210.623 220.693 210.144 219.614 209.584C219.934 215.179 224.01 218.616 229.405 218.616C235.039 218.616 239.196 214.86 239.196 208.825V197.476H242.433V208.825C242.433 216.698 236.838 221.853 229.405 221.853ZM247.859 197.476H251.096V221.453H247.859V197.476ZM256.177 221.453V218.216H261.931V203.27C261.931 201.312 261.572 200.713 260.013 200.713H256.177V197.476H260.253C263.969 197.476 265.168 198.874 265.168 202.991V221.453H256.177ZM278.877 208.985C274.561 209.345 273.043 211.662 273.043 215.819V221.453H269.686V215.899C269.686 210.743 272.044 207.506 277.079 206.587L270.405 197.476H274.442L282.274 208.106C286.35 207.786 288.029 205.788 288.029 201.752V197.476H291.386V201.632C291.386 206.627 288.908 209.584 284.033 210.504L292.065 221.453H288.029L278.877 208.985ZM296.819 197.476H300.056V221.453H296.819V197.476Z" fill="#421158"></path>
<path d="M520 51.3809C518.787 87.9859 499.244 126.091 480.075 151.356C464.24 171.228 441.373 189.759 417.474 201.737C388.527 216.247 376.639 212.429 369.459 211.131C364.503 210.237 361.815 205.652 360.465 201.492C352.956 178.291 346.854 140.898 347.296 125.165H371.422C371.127 130.771 374.507 200.872 379.475 200.237C383.785 200.546 456.992 169.196 483.965 96.1875C488.966 82.6693 491.858 67.7578 493.185 51.4004L520 51.3809ZM369.165 10.8604C369.165 10.8923 407.013 10.8179 407.106 10.8604C412.528 17.7641 432.32 57.3451 432.888 60.5498C433.081 61.6029 448.246 13.7021 453.18 11.7861C460.496 8.95644 491.315 14.8386 497.417 16.8066H497.406C509.758 20.7852 518.878 32.1363 519.116 44.0508H492.959C491.428 32.8171 480.822 24.6474 472.236 20.9561C471.792 21.456 440.306 99.9538 438.945 102.368C438.85 102.357 421.258 102.166 421.046 102.229C421.046 103.24 399.915 35.934 392.667 26.6045C391.917 28.1162 373.622 67.8063 371.875 117.623H371.853C371.751 117.612 370.299 117.612 368.144 117.623H346.582C346.377 114.442 344.471 58.4439 369.165 10.8604ZM81.3198 117.538H54.6304L64.6011 54.2852H91.4263L81.3198 117.538ZM86.311 0.244141C114.214 8.36088 131.534 21.0089 137.773 37.8486C141.55 48.0611 142.128 59.9759 139.576 75.3584C138.385 82.6027 136.831 89.9427 135.323 97.0381C133.905 103.74 132.442 110.655 131.262 117.538H104.232L110.528 66.4648V66.2842C110.845 42.4447 98.7424 32.3066 77.7358 22.8389C71.9397 20.2326 66.0071 18.0091 61.0503 16.2432L86.311 0.244141ZM246.12 11.2324L228.572 117.538H200.442L214.586 10.9141L246.12 11.2324ZM321.321 11.2334C327.128 16.5949 331.416 24.1161 334.093 33.5732C335.919 40.0198 337.065 47.1263 337.394 54.126H337.382C338.085 69.0083 334.978 83.8695 331.96 98.2412C330.645 104.56 329.273 111.06 328.241 117.538H300.859L305.691 78.1992C306.825 56.8063 306.621 34.7005 291.036 20.084L288.371 17.584L273.046 117.538H245.461L263.257 11.2334H321.321ZM195.905 11.126L179.718 117.537H151.6L165.812 11.0625L195.905 11.126ZM493.185 51.4004L493.175 51.4014L493.186 51.3916C493.186 51.3945 493.185 51.3975 493.185 51.4004Z" fill="#421158"></path>
</svg>